<?xml version="1.0" encoding="UTF-8" standalone="no"?>
<!-- Created with Inkscape (http://www.inkscape.org/) -->
<svg
   xmlns:dc="http://purl.org/dc/elements/1.1/"
   xmlns:cc="http://web.resource.org/cc/"
   xmlns:rdf="http://www.w3.org/1999/02/22-rdf-syntax-ns#"
   xmlns:svg="http://www.w3.org/2000/svg"
   xmlns="http://www.w3.org/2000/svg"
   xmlns:sodipodi="http://sodipodi.sourceforge.net/DTD/sodipodi-0.dtd"
   xmlns:inkscape="http://www.inkscape.org/namespaces/inkscape"
   id="svg2"
   sodipodi:version="0.32"
   inkscape:version="0.44.1"
   width="411.69693"
   height="502.95993"
   version="1.0"
   sodipodi:docbase="E:\Temp\Wiki"
   sodipodi:docname="Nižní Lhoty CoA.svg">
  <metadata
     id="metadata7">
    <rdf:RDF>
      <cc:Work
         rdf:about="">
        <dc:format>image/svg+xml</dc:format>
        <dc:type
           rdf:resource="http://purl.org/dc/dcmitype/StillImage" />
      </cc:Work>
    </rdf:RDF>
  </metadata>
  <defs
     id="defs5" />
  <sodipodi:namedview
     inkscape:window-height="480"
     inkscape:window-width="640"
     inkscape:pageshadow="2"
     inkscape:pageopacity="0.0"
     guidetolerance="10.0"
     gridtolerance="10.0"
     objecttolerance="10.0"
     borderopacity="1.0"
     bordercolor="#666666"
     pagecolor="#ffffff"
     id="base" />
  <g
     id="g3707"
     transform="matrix(1.988298,0,0,1.988298,-14.86903,-14.03428)">
    <path
       sodipodi:nodetypes="ccccccz"
       d="M 111.00826,257.51847 C 154.12079,257.51847 208.96234,225.23081 212.03825,161.72707 L 212.03825,9.5584414 L 111.00826,9.5584414 L 9.9782708,9.5584414 L 9.9782708,161.72707 C 13.05418,225.23081 67.895729,257.51847 111.00826,257.51847 z "
       style="fill:#003380;fill-rule:evenodd;stroke:black;stroke-width:1px;stroke-linecap:butt;stroke-linejoin:miter;stroke-opacity:1"
       id="path2811" />
    <g
       id="g2795">
      <path
         style="fill:white;fill-rule:evenodd;stroke:black;stroke-width:1px;stroke-linecap:butt;stroke-linejoin:miter;stroke-opacity:1"
         d="M 129.11936,213.7878 C 131.66578,210.60477 141.18938,227.58403 127.70822,227.8992 C 116.00245,228.1679 114.41737,210.83668 115.1665,199.88849 C 117.38557,167.70745 128.13778,163.44288 136.17507,163.33952 C 148.76868,163.17757 170.00769,192.11326 134.05836,199.32361 C 142.36455,181.71449 123.16116,178.90166 117.47745,201.08753 C 115.07395,210.4694 128.65623,229.9974 129.11936,213.7878 z "
         id="path1875"
         sodipodi:nodetypes="cssscsc" />
      <path
         id="path1873"
         style="fill:white;fill-rule:evenodd;stroke:black;stroke-width:1px;stroke-linecap:butt;stroke-linejoin:miter;stroke-opacity:1"
         d="M 111.2736,244.12732 C 108.13164,235.02372 98.756406,236.34128 101.54189,232.13263 C 108.83477,221.11366 108.75118,210.04423 107.98314,198.39775 C 105.76091,164.7002 94.342176,149.2854 94.486186,144.28912 C 94.731466,136.02857 107.79219,131.77413 111.2736,123.82759 C 114.75501,131.77413 127.81573,136.02857 128.06101,144.28912 C 128.20502,149.2854 116.78629,164.7002 114.56406,198.39775 C 113.79602,210.04423 113.71243,221.11366 121.00531,232.13263 C 123.79079,236.34128 114.41556,235.02372 111.2736,244.12732 z "
         sodipodi:nodetypes="csscccssc" />
      <path
         sodipodi:nodetypes="cssscsc"
         id="path1879"
         d="M 93.427836,213.7878 C 90.881416,210.60477 81.357816,227.58403 94.838976,227.8992 C 106.54475,228.1679 108.12983,210.83668 107.3807,199.88849 C 105.16163,167.70745 94.409416,163.44288 86.372126,163.33952 C 73.778516,163.17757 52.539507,192.11326 88.488836,199.32361 C 80.182646,181.71449 99.386036,178.90166 105.06975,201.08753 C 107.47325,210.4694 93.890966,229.9974 93.427836,213.7878 z "
         style="fill:white;fill-rule:evenodd;stroke:black;stroke-width:1px;stroke-linecap:butt;stroke-linejoin:miter;stroke-opacity:1" />
      <path
         style="fill:none;fill-rule:evenodd;stroke:black;stroke-width:1px;stroke-linecap:butt;stroke-linejoin:miter;stroke-opacity:1"
         d="M 108.51369,133.78791 L 111.75663,130.54497 C 112.5255,135.32564 123.78711,134.05469 123.73056,146.26075 C 123.6982,153.24585 119.2311,159.48196 116.49631,167.21512"
         id="path1884"
         sodipodi:nodetypes="ccsc" />
      <path
         style="fill:none;fill-rule:evenodd;stroke:black;stroke-width:1px;stroke-linecap:butt;stroke-linejoin:miter;stroke-opacity:1"
         d="M 111.25772,222.34507 L 111.25772,171.70534"
         id="path1886" />
      <path
         style="fill:none;fill-rule:evenodd;stroke:black;stroke-width:1px;stroke-linecap:butt;stroke-linejoin:miter;stroke-opacity:1"
         d="M 114.2512,226.08692 C 120.21062,233.65593 110.92056,234.56135 111.50718,239.05867 C 110.50642,237.04697 109.96577,234.94325 105.76967,233.57062"
         id="path1888"
         sodipodi:nodetypes="ccc" />
      <path
         style="fill:none;fill-rule:evenodd;stroke:black;stroke-width:1px;stroke-linecap:butt;stroke-linejoin:miter;stroke-opacity:1"
         d="M 129.71752,217.85484 C 133.50382,221.01655 133.54932,228.41971 124.22947,223.84181"
         id="path1890"
         sodipodi:nodetypes="cc" />
      <path
         style="fill:none;fill-rule:evenodd;stroke:black;stroke-width:1px;stroke-linecap:butt;stroke-linejoin:miter;stroke-opacity:1"
         d="M 116.74577,196.65102 C 120.39536,185.46003 125.85243,183.90891 131.46372,183.18035"
         id="path1892"
         sodipodi:nodetypes="cc" />
      <path
         style="fill:none;fill-rule:evenodd;stroke:black;stroke-width:1px;stroke-linecap:butt;stroke-linejoin:miter;stroke-opacity:1"
         d="M 138.19905,195.65319 C 154.66355,190.62971 149.7168,181.91463 147.67841,173.701"
         id="path1894"
         sodipodi:nodetypes="cc" />
      <path
         style="fill:none;fill-rule:evenodd;stroke:black;stroke-width:1px;stroke-linecap:butt;stroke-linejoin:miter;stroke-opacity:1"
         d="M 91.051721,167.96349 C 97.344558,172.39916 103.89626,176.15532 105.0213,194.15645"
         id="path1896"
         sodipodi:nodetypes="cc" />
      <path
         style="fill:none;fill-rule:evenodd;stroke:black;stroke-width:1px;stroke-linecap:butt;stroke-linejoin:miter;stroke-opacity:1"
         d="M 84.815302,185.17601 C 83.594134,188.5021 82.526333,191.82819 84.565845,195.15428 C 82.944047,195.77694 80.863597,195.02364 78.578882,193.65754"
         id="path1898"
         sodipodi:nodetypes="ccc" />
      <path
         style="fill:none;fill-rule:evenodd;stroke:black;stroke-width:1px;stroke-linecap:butt;stroke-linejoin:miter;stroke-opacity:1"
         d="M 92.797918,224.34072 C 94.180017,225.21948 95.376476,226.3767 98.03651,225.33855"
         id="path1900"
         sodipodi:nodetypes="cc" />
      <path
         style="fill:white;fill-opacity:1;stroke:black;stroke-width:1;stroke-linecap:round;stroke-linejoin:round;stroke-miterlimit:4;stroke-dashoffset:0;stroke-opacity:1"
         d="M 99.657971,205.382 L 123.60582,205.382 C 125.26886,206.62929 124.39577,207.87657 122.73272,209.12386 L 100.53107,209.12386 C 97.660583,206.91974 98.766686,206.33219 99.657971,205.382 z "
         id="rect2792"
         sodipodi:nodetypes="ccccc" />
      <path
         style="fill:white;fill-opacity:1;stroke:black;stroke-width:1;stroke-linecap:round;stroke-linejoin:round;stroke-miterlimit:4;stroke-dasharray:none;stroke-dashoffset:0;stroke-opacity:1"
         d="M 96.539772,197.8983 L 125.2273,197.8983 C 129.92318,198.23091 132.38476,204.55048 125.2273,205.63146 L 96.539772,205.63146 C 92.868325,204.81402 92.078161,198.88522 96.539772,197.8983 z "
         id="rect1902"
         sodipodi:nodetypes="ccccc" />
    </g>
    <path
       id="path2818"
       style="fill:#fc0;fill-rule:evenodd;stroke:black;stroke-width:1px;stroke-linecap:butt;stroke-linejoin:miter;stroke-opacity:1"
       d="M 111.00826,93.874831 L 194.54977,214.09462 C 204.45356,200.02116 211.02953,182.55272 212.03825,161.72707 L 111.00826,9.5584414 L 9.9782708,161.72707 C 11.0515,183.88444 18.42674,202.24152 29.406914,216.7528 L 111.00826,93.874831 z "
       sodipodi:nodetypes="ccccccc" />
    <path
       id="path2820"
       style="fill:none;fill-rule:evenodd;stroke:black;stroke-width:5;stroke-linecap:butt;stroke-linejoin:miter;stroke-miterlimit:4;stroke-dasharray:none;stroke-opacity:1"
       d="M 111.00826,257.51847 C 154.12079,257.51847 208.96234,225.23081 212.03825,161.72707 L 212.03825,9.5584414 L 111.00826,9.5584414 L 9.9782708,9.5584414 L 9.9782708,161.72707 C 13.05418,225.23081 67.895729,257.51847 111.00826,257.51847 z "
       sodipodi:nodetypes="ccccccz" />
  </g>
</svg>
